<?xml version="1.0" encoding="utf-8"?>
<!-- Generator: Adobe Illustrator 16.0.0, SVG Export Plug-In . SVG Version: 6.00 Build 0)  -->
<!DOCTYPE svg PUBLIC "-//W3C//DTD SVG 1.0//EN" "http://www.w3.org/TR/2001/REC-SVG-20010904/DTD/svg10.dtd">
<svg version="1.0" xmlns="http://www.w3.org/2000/svg" xmlns:xlink="http://www.w3.org/1999/xlink" x="0px" y="0px" width="92px"
	 height="58px" viewBox="0 0 92 58" enable-background="new 0 0 92 58" xml:space="preserve">
<g id="bars">
	
		<rect x="67.677" y="22.911" transform="matrix(0.9999 -0.012 0.012 0.9999 -0.4678 0.8746)" fill-rule="evenodd" clip-rule="evenodd" fill="#FFFFFF" width="9.753" height="32.915"/>
	
		<rect x="79.213" y="11.44" transform="matrix(0.9986 0.0536 -0.0536 0.9986 1.6153 -4.4649)" fill-rule="evenodd" clip-rule="evenodd" fill="#FFFFFF" width="9.752" height="32.915"/>
	
		<rect x="56.573" y="14.442" transform="matrix(0.9975 0.0708 -0.0708 0.9975 2.3414 -4.2722)" fill-rule="evenodd" clip-rule="evenodd" fill="#FFFFFF" width="9.754" height="32.916"/>
	
		<rect x="46.431" y="1.925" transform="matrix(0.9996 0.0267 -0.0267 0.9996 0.5098 -1.3652)" fill-rule="evenodd" clip-rule="evenodd" fill="#FFFFFF" width="9.753" height="32.916"/>
	
		<rect x="35.459" y="11.44" transform="matrix(0.9987 0.0508 -0.0508 0.9987 1.4683 -2.0118)" fill-rule="evenodd" clip-rule="evenodd" fill="#FFFFFF" width="9.752" height="32.914"/>
	
		<rect x="24.529" y="6.72" transform="matrix(0.9996 0.0271 -0.0271 0.9996 0.6398 -0.7894)" fill-rule="evenodd" clip-rule="evenodd" fill="#FFFFFF" width="9.752" height="32.916"/>
	
		<rect x="13.34" y="18.863" transform="matrix(0.9993 -0.0378 0.0378 0.9993 -1.3238 0.7148)" fill-rule="evenodd" clip-rule="evenodd" fill="#FFFFFF" width="9.753" height="32.915"/>
	
		<rect x="1.864" y="11.44" transform="matrix(0.9989 0.0464 -0.0464 0.9989 1.3006 -0.2825)" fill-rule="evenodd" clip-rule="evenodd" fill="#FFFFFF" width="9.753" height="32.915"/>
</g>
<g id="texts">
	<g>
		<path d="M3.252,25.599h2.107l1.564,4.988l1.65-4.988h1.898l-2.508,6.885H5.684L3.252,25.599z"/>
	</g>
	<g>
		<path d="M16.844,25.599h1.964v6.885h-1.964V25.599z"/>
	</g>
	<g>
		<path d="M26.324,25.618h5.169v1.316h-3.281v1.431h3.09v1.316h-3.09v1.469h3.357v1.334h-5.245V25.618z"/>
	</g>
	<g>
		<path d="M38.846,26.963h-2.098v-1.364h6.17v1.364h-2.146v5.521h-1.926V26.963z"/>
	</g>
	<g>
		<path d="M49.852,30.281c0,0.287-0.01,0.973,0.639,0.973c0.696,0,0.696-0.667,0.696-1.029v-4.625h1.937v4.559
			c0,0.285-0.029,1.145-0.468,1.659c-0.601,0.687-1.525,0.82-2.165,0.82c-0.819,0-1.707-0.2-2.222-0.935
			c-0.314-0.449-0.314-1.078-0.314-1.422H49.852z"/>
	</g>
	<g>
		<path d="M60.628,25.599h2.327l2.718,6.885h-2.155l-0.477-1.383h-2.756l-0.468,1.383H57.91L60.628,25.599z M62.603,29.833
			l-0.887-2.89h-0.029l-0.953,2.89H62.603z"/>
	</g>
	<g>
		<path d="M69.772,30.969l3.434-4.025h-3.243v-1.326h5.608v1.469l-3.548,4.063h3.624v1.334h-5.875V30.969z"/>
	</g>
	<g>
		<path d="M80.759,30.969l3.434-4.025h-3.243v-1.326h5.608v1.469L83.01,31.15h3.624v1.334h-5.875V30.969z"/>
	</g>
	<g>
	</g>
	<g>
	</g>
	<g>
	</g>
	<g>
	</g>
	<g>
	</g>
	<g>
	</g>
	<g>
	</g>
	<g>
	</g>
	<g>
	</g>
	<g>
	</g>
	<g>
	</g>
	<g>
	</g>
	<g>
	</g>
	<g>
	</g>
	<g>
	</g>
</g>
</svg>
