<?xml version="1.0" encoding="utf-8"?>
<!-- Generator: Adobe Illustrator 16.0.0, SVG Export Plug-In . SVG Version: 6.00 Build 0)  -->
<!DOCTYPE svg PUBLIC "-//W3C//DTD SVG 1.0//EN" "http://www.w3.org/TR/2001/REC-SVG-20010904/DTD/svg10.dtd">
<svg version="1.0" xmlns="http://www.w3.org/2000/svg" xmlns:xlink="http://www.w3.org/1999/xlink" x="0px" y="0px" width="620px"
	 height="300px" viewBox="0 0 620 300" enable-background="new 0 0 620 300" xml:space="preserve">
<g id="Layer_3">
	<path fill="#231F20" d="M509.297,135.591c-8.283,0-13.232,6.872-13.232,13.516c0,6.645,4.949,13.517,13.232,13.517
		c8.32,0,13.292-6.872,13.292-13.517C522.589,142.463,517.617,135.591,509.297,135.591z M514.762,149.106
		c0,3.723-0.71,9.966-5.465,9.966c-4.467,0-5.404-5.419-5.404-9.966c0-4.548,0.938-9.969,5.404-9.969
		C514.052,139.138,514.762,145.384,514.762,149.106z"/>
	<path fill="#231F20" d="M549.056,136.323H537.97c0,0,3.475,3.473,3.54,3.538c0,0.089,0,9.556,0,10.159
		c-0.387-0.486-10.872-13.697-10.872-13.697h-8.998c0,0,3.472,3.473,3.537,3.538c0,0.092,0,18.396,0,18.489
		c-0.064,0.064-3.537,3.541-3.537,3.541h11.3c0,0-3.474-3.477-3.538-3.541c0-0.091,0-12.952,0-13.549
		c0.389,0.472,16.368,19.86,16.368,19.86s0.02-24.708,0.02-24.801c0.064-0.064,3.538-3.538,3.538-3.538H549.056z"/>
	<path fill="#231F20" d="M472.133,95.821l6.139-11.124c-1.459,1.367-2.192,1.797-3.547,2.727
		c-7.422,5.095-16.557,6.307-25.735,13.856c-6.227,5.123-9.101,12.548-9.101,12.548s8.357-9.387,20.995-14.068
		C465.981,97.87,469.537,96.833,472.133,95.821z"/>
	<path fill="#231F20" d="M468.859,101.758c-6.651,2.12-14.575,4.14-22.692,9.617c-6.323,4.267-9.995,11.548-9.995,11.548
		s8.914-8.916,21.875-11.96c2.607-0.611,4.797-1.122,6.631-1.549L468.859,101.758z"/>
	<path fill="#231F20" d="M491.065,148.218l-6.703-3.604c-1.74-1.011-2.361-2.241-2.361-3.055c-0.023-0.388,0.209-0.888,0.608-1.312
		c0.629-0.67,1.557-1.055,2.546-1.055c0.52,0,1.131,0.163,1.868,0.498c0,0.01,3.461,3.412,3.461,3.412l0.099,0.098l3.77-5.895
		l-6.871-0.981c-0.908-0.17-1.965-0.17-2.665-0.17c-6.229,0-9.066,3.708-9.066,7.152c0,2.018,1.214,4.834,4.62,6.686
		c0.001,0.001,6.703,3.607,6.703,3.607c0.585,0.425,1.404,1.019,1.404,2.378c0,2.438-2.223,3.323-3.717,3.323
		c-0.87,0-1.645-0.222-2.302-0.657c0-0.004-3.813-3.761-3.813-3.761l-0.109-0.107l-3.113,6.064l-2.135-2.679
		c0-0.014-8.601-21.768-8.601-21.768l-0.027-0.07h-0.076h-4.186c0,0-8.813,21.865-8.814,21.865
		c-0.002-0.001-1.241,1.576-2.061,2.619l-2.811-3.22v-33.484c8.961-7.102,14.753-8.542,14.738-8.541
		c-3.185,0.288-9.837,0.887-17.615,5.22c-5.117,2.851-9.156,6.747-9.156,6.747l-0.01,0.026l-0.005-0.007
		c-1.519,2.851-3.625,7.594-5.688,12.689l-10.261-18.731h-13.451l4.301,4.303v31.686l-4.301,4.301h14.712l-4.371-4.301v-24.582
		l9.612,17.199c-1.434,4.042-2.562,7.653-3.032,9.974l3.093-3.592c0,0,2.51-11.955,12.402-23.688v25.068l-4.302,4.015h15.294
		l-0.002,0.002h10.723c0,0-3.305-3.305-3.407-3.406c0.053-0.131,1.298-3.223,1.352-3.354c0.147,0,7.575,0,7.729,0
		c0.05,0.141,1.145,3.226,1.189,3.352c-0.098,0.098-3.408,3.409-3.408,3.409h12.74c1.787,0.046,6.4,0.165,6.406,0.166
		c0.915,0.151,1.91,0.226,3.044,0.226c7.277,0,9.858-4.308,9.858-7.997C494.898,150.596,492.218,148.813,491.065,148.218z
		 M458.726,151.638c0.113-0.282,2.345-5.854,2.536-6.335c0.186,0.483,2.32,6.056,2.428,6.335
		C463.393,151.638,459.027,151.638,458.726,151.638z"/>
	<g>
		<path fill="#231F20" d="M470.801,131.921c-2.035,0.518-3.551,0.552-4.654,0.552c-3.207,0-6.913-1.62-6.913-6.171
			c0-4.535,3.188-6.275,7.603-6.275c0.793,0,2.465,0.086,3.637,0.534l-0.258,2.62c-1-0.586-2.172-0.775-2.932-0.775
			c-2.603,0-4.74,1.086-4.74,3.896c0,2.361,1.672,3.792,4.017,3.792c0.431,0,0.845-0.069,1.138-0.207v-2.379h-1.879v-2.275h4.982
			V131.921z"/>
		<path fill="#231F20" d="M476.852,120.233h8.48v2.275h-5.274v2.482h4.981v2.275h-4.981v2.724h5.465v2.275h-8.671V120.233z"/>
		<path fill="#231F20" d="M496.192,120.026c3.965,0,6.033,2.361,6.033,6.223c0,3.827-2.103,6.224-6.033,6.224
			s-6.033-2.396-6.033-6.224C490.159,122.388,492.228,120.026,496.192,120.026z M496.192,130.094c1.948,0,2.724-1.862,2.724-3.845
			c0-2.086-0.775-3.844-2.724-3.844s-2.724,1.758-2.724,3.844C493.469,128.231,494.244,130.094,496.192,130.094z"/>
		<path fill="#231F20" d="M507.242,120.233h5.724c2.138,0,3.878,0.965,3.878,3.033c0,1.604-0.758,2.672-2.31,3.035v0.033
			c1.034,0.276,1.104,1.189,1.707,2.655l1.172,3.275h-3.345l-0.689-2.172c-0.654-2.069-1.068-2.586-2.258-2.586h-0.673v4.758h-3.206
			V120.233z M510.448,125.232h0.845c1.035,0,2.345-0.034,2.345-1.396c0-1.12-1.12-1.327-2.345-1.327h-0.845V125.232z"/>
		<path fill="#231F20" d="M533.238,131.921c-2.034,0.518-3.552,0.552-4.655,0.552c-3.206,0-6.912-1.62-6.912-6.171
			c0-4.535,3.189-6.275,7.603-6.275c0.793,0,2.465,0.086,3.637,0.534l-0.259,2.62c-0.999-0.586-2.172-0.775-2.931-0.775
			c-2.603,0-4.74,1.086-4.74,3.896c0,2.361,1.672,3.792,4.017,3.792c0.431,0,0.845-0.069,1.138-0.207v-2.379h-1.879v-2.275h4.982
			V131.921z"/>
		<path fill="#231F20" d="M538.927,120.233h8.481v2.275h-5.275v2.482h4.982v2.275h-4.982v2.724h5.465v2.275h-8.671V120.233z"/>
	</g>
	<g>
		<path fill="#231F20" d="M414.859,174.959c0,2.331-1.514,3.38-3.734,3.38s-3.734-1.049-3.734-3.38v-5.284h2.27v4.906
			c0,1.123,0.306,2.074,1.465,2.074s1.465-0.951,1.465-2.074v-4.906h2.27V174.959z"/>
		<path fill="#231F20" d="M423.719,169.675h2.892l2.88,5.785h0.023l-0.036-5.785h2.075v8.518h-2.819l-2.978-5.82h-0.024l0.073,5.82
			h-2.086V169.675z"/>
		<path fill="#231F20" d="M441.314,169.675h2.27v8.518h-2.27V169.675z"/>
		<path fill="#231F20" d="M452.797,169.675h2.417l1.892,6.688h0.023l1.904-6.688h2.33l-2.904,8.518h-2.807L452.797,169.675z"/>
		<path fill="#231F20" d="M469.82,169.675h6.004v1.611h-3.734v1.758h3.527v1.61h-3.527v1.928h3.868v1.61h-6.138V169.675z"/>
		<path fill="#231F20" d="M484.928,169.675h4.051c1.514,0,2.746,0.684,2.746,2.148c0,1.135-0.537,1.891-1.636,2.147v0.024
			c0.732,0.195,0.781,0.842,1.208,1.879l0.83,2.318h-2.367l-0.488-1.537c-0.464-1.465-0.757-1.83-1.599-1.83h-0.476v3.367h-2.27
			V169.675z M487.197,173.214h0.598c0.732,0,1.659-0.023,1.659-0.988c0-0.793-0.793-0.939-1.659-0.939h-0.598V173.214z"/>
		<path fill="#231F20" d="M500.376,176.094c0.586,0.317,1.403,0.562,2.343,0.562c0.72,0,1.403-0.146,1.403-0.83
			c0-1.586-4.026-0.586-4.026-3.686c0-2.049,2.001-2.611,3.709-2.611c0.818,0,1.623,0.123,2.197,0.318l-0.146,1.757
			c-0.586-0.269-1.245-0.391-1.892-0.391c-0.574,0-1.525,0.049-1.525,0.793c0,1.379,4.026,0.452,4.026,3.526
			c0,2.209-1.854,2.807-3.746,2.807c-0.793,0-1.781-0.121-2.538-0.365L500.376,176.094z"/>
		<path fill="#231F20" d="M514.995,169.675h2.27v8.518h-2.27V169.675z"/>
		<path fill="#231F20" d="M528.26,171.359h-2.1v-1.685h6.468v1.685h-2.099v6.833h-2.27V171.359z"/>
		<path fill="#231F20" d="M542.269,174.983l-3.148-5.309h2.611l1.672,3.418l1.647-3.418h2.611l-3.124,5.309v3.209h-2.27V174.983z"/>
	</g>
</g>
<g id="Layer_2">
	<g>
		<path d="M68.188,162.17l-1.96-10.852h-1.015v10.852h-3.78v-25.727h3.78c4.515,0,6.44,2.555,6.44,7.42
			c0,2.555-0.665,4.866-2.1,5.846l2.415,12.46H68.188z M65.213,147.819c0.525,0,1.225-0.07,1.785-0.56
			c0.56-0.49,1.015-1.436,1.015-3.256s-0.455-2.8-1.015-3.29c-0.56-0.49-1.26-0.525-1.785-0.525V147.819z"/>
		<path d="M74.067,136.443h8.646v3.885h-4.865v6.755h3.5v4.13h-3.5v7.07h4.865v3.886h-8.646V136.443z"/>
		<path d="M83.832,162.17l3.885-25.727h4.621l3.885,25.727h-3.675l-0.7-5.251h-3.64l-0.7,5.251H83.832z M90.237,144.809
			l-0.105-0.665h-0.21l-0.105,0.665l-1.085,8.12h2.59L90.237,144.809z"/>
		<path d="M97.972,136.443h3.78v22.227h5.005v3.5h-8.786V136.443z"/>
		<path d="M119.112,162.17h-2.94l-3.465-25.727h3.5l1.505,13.371l0.07,0.84h0.28l0.105-0.84l1.61-13.371h2.73l1.61,13.371
			l0.105,0.84h0.28l0.07-0.84l1.505-13.371h3.5l-3.465,25.727h-2.94l-1.75-12.181l-0.21-1.505h-0.14l-0.21,1.505L119.112,162.17z"/>
		<path d="M141.232,156.885c-0.035,1.05-0.245,1.995-0.63,2.8c-0.315,0.7-0.805,1.365-1.505,1.891
			c-0.7,0.56-1.646,0.875-2.905,0.875c-1.26,0-2.24-0.315-2.94-0.875c-0.7-0.525-1.155-1.19-1.47-1.891
			c-0.385-0.805-0.595-1.75-0.63-2.8v-15.157c0.035-1.015,0.245-1.96,0.63-2.765c0.315-0.7,0.77-1.4,1.47-1.925
			c0.7-0.525,1.68-0.875,2.94-0.875c1.26,0,2.205,0.35,2.905,0.875c0.7,0.525,1.19,1.225,1.505,1.925
			c0.385,0.805,0.595,1.75,0.63,2.765V156.885z M137.452,141.728c0-0.7-0.14-1.19-0.49-1.61c-0.175-0.175-0.455-0.28-0.77-0.28
			c-0.665,0-0.98,0.49-1.12,0.945c-0.105,0.28-0.14,0.595-0.14,0.945v15.157c0,0.734,0.175,1.225,0.525,1.609
			c0.175,0.176,0.42,0.28,0.735,0.28c0.665,0,0.98-0.42,1.12-0.945c0.105-0.245,0.14-0.56,0.14-0.944V141.728z"/>
		<path d="M150.542,162.17l-1.96-10.852h-1.015v10.852h-3.78v-25.727h3.78c4.515,0,6.44,2.555,6.44,7.42
			c0,2.555-0.665,4.866-2.1,5.846l2.415,12.46H150.542z M147.566,147.819c0.525,0,1.225-0.07,1.785-0.56
			c0.56-0.49,1.015-1.436,1.015-3.256s-0.455-2.8-1.015-3.29c-0.56-0.49-1.26-0.525-1.785-0.525V147.819z"/>
		<path d="M156.42,162.17v-25.727h2.976c3.5,0,5.391,0.7,6.406,2.66c0.98,1.96,1.12,5.181,1.12,10.221
			c0,5.041-0.14,8.226-1.12,10.186c-1.015,1.96-2.905,2.66-6.406,2.66H156.42z M160.201,158.39c1.295,0,2.03-0.14,2.415-1.4
			c0.175-0.595,0.315-1.505,0.35-2.73c0.035-1.225,0.035-2.87,0.035-4.969c0-2.101,0-3.746-0.035-4.971
			c-0.035-1.19-0.175-2.1-0.35-2.73c-0.385-1.225-1.12-1.365-2.415-1.365V158.39z"/>
		<path d="M174.83,162.17v-25.727h2.975c3.5,0,5.391,0.7,6.406,2.66c0.98,1.96,1.12,5.181,1.12,10.221
			c0,5.041-0.14,8.226-1.12,10.186c-1.015,1.96-2.905,2.66-6.406,2.66H174.83z M178.61,158.39c1.295,0,2.03-0.14,2.415-1.4
			c0.175-0.595,0.315-1.505,0.35-2.73c0.035-1.225,0.035-2.87,0.035-4.969c0-2.101,0-3.746-0.035-4.971
			c-0.035-1.19-0.175-2.1-0.35-2.73c-0.385-1.225-1.12-1.365-2.415-1.365V158.39z"/>
		<path d="M187.85,136.443h8.646v3.885h-4.865v6.755h3.5v4.13h-3.5v7.07h4.865v3.886h-8.646V136.443z"/>
		<path d="M204.86,143.338c0-0.84-0.035-1.785-0.28-2.52c-0.245-0.7-0.63-1.19-1.225-1.19c-0.98,0.035-1.295,1.05-1.295,2.555
			c0,0.875,0.385,1.785,0.945,2.766c0.56,0.979,1.295,1.995,2.03,3.08c0.875,1.295,1.75,2.625,2.415,3.92
			c0.665,1.295,1.12,2.625,1.12,4.025c0,1.715-0.28,3.325-1.085,4.516c-0.805,1.189-2.1,1.96-4.166,1.96
			c-2.415,0-3.78-0.91-4.55-2.311s-0.945-3.255-0.945-5.181l3.71-0.35c0,1.085,0.035,2.17,0.315,2.975
			c0.245,0.841,0.665,1.4,1.47,1.4c1.12,0,1.541-1.189,1.541-2.835c0-0.84-0.42-1.82-0.98-2.835c-0.315-0.49-0.63-1.016-0.98-1.541
			c-0.735-1.049-1.54-2.24-2.38-3.535c-0.84-1.295-1.47-2.625-1.855-3.99c-0.21-0.665-0.315-1.365-0.315-2.065
			c0-1.4,0.315-2.905,1.12-4.06c0.805-1.12,2.03-1.925,3.815-1.96c2.275-0.035,3.605,0.91,4.34,2.275
			c0.735,1.4,0.945,3.115,0.945,4.55L204.86,143.338z"/>
		<path d="M210.599,136.443h3.781v25.727h-3.781V136.443z"/>
		<path d="M223.234,145.684v-3.956c0-0.7-0.14-1.19-0.49-1.61c-0.175-0.175-0.455-0.28-0.77-0.28c-0.665,0-0.98,0.49-1.12,0.945
			c-0.105,0.28-0.14,0.595-0.14,0.945v15.471c0,0.735,0.175,1.226,0.525,1.61c0.175,0.175,0.42,0.28,0.735,0.28
			c0.665,0,0.98-0.42,1.12-0.945c0.105-0.245,0.14-0.561,0.14-0.945v-4.655h-1.505v-3.185h5.286v12.811h-2.24l-0.455-1.226
			c-0.7,0.876-1.715,1.506-2.94,1.506s-2.065-0.315-2.695-0.875c-0.63-0.525-1.05-1.19-1.33-1.891c-0.315-0.805-0.455-1.75-0.42-2.8
			v-15.157c0.035-1.015,0.245-1.96,0.63-2.765c0.315-0.7,0.77-1.4,1.47-1.925c0.7-0.525,1.68-0.875,2.94-0.875
			c1.26,0,2.205,0.35,2.905,0.875c0.7,0.525,1.19,1.225,1.505,1.925c0.385,0.805,0.595,1.75,0.63,2.765v3.956H223.234z"/>
		<path d="M233.769,148.764l-0.315-1.19h-0.21v14.596h-3.465v-25.727h3.36l3.675,13.406l0.315,1.19h0.21v-14.596h3.465v25.727h-3.36
			L233.769,148.764z"/>
	</g>
	<g>
		<path d="M289.166,162l-2.416-16.172l-0.14-1.085h-0.21V162h-3.5v-25.728h4.62l2.24,11.761l0.175,1.365h0.07l0.175-1.365
			l2.24-11.761h4.621V162h-3.5v-17.257h-0.21l-0.14,1.085L290.776,162H289.166z"/>
		<path d="M298.79,162l3.885-25.728h4.621L311.182,162h-3.676l-0.7-5.25h-3.64l-0.7,5.25H298.79z M305.196,144.638l-0.105-0.665
			h-0.21l-0.105,0.665l-1.085,8.121h2.59L305.196,144.638z"/>
		<path d="M329.975,162l-2.415-16.172l-0.141-1.085h-0.21V162h-3.5v-25.728h4.62l2.24,11.761l0.175,1.365h0.07l0.175-1.365
			l2.24-11.761h4.621V162h-3.501v-17.257h-0.21l-0.14,1.085L331.585,162H329.975z"/>
		<path d="M349.646,140.158h-5.216v6.756h3.5v3.885h-3.5V162h-3.78v-25.728h8.996V140.158z"/>
		<path d="M350.133,162l3.886-25.728h4.62L362.524,162h-3.675l-0.7-5.25h-3.641l-0.7,5.25H350.133z M356.539,144.638l-0.105-0.665
			h-0.21l-0.104,0.665l-1.085,8.121h2.59L356.539,144.638z"/>
	</g>
	<path d="M320,149.25c0,0.967-0.783,1.75-1.75,1.75h-0.5c-0.967,0-1.75-0.783-1.75-1.75v-0.5c0-0.967,0.783-1.75,1.75-1.75h0.5
		c0.967,0,1.75,0.783,1.75,1.75V149.25z"/>
	<line fill="none" stroke="#000000" stroke-miterlimit="10" x1="386.5" y1="123" x2="386.5" y2="178"/>
	<line fill="none" stroke="#000000" stroke-miterlimit="10" x1="262.5" y1="123" x2="262.5" y2="178"/>
	<g>
	</g>
	<g>
	</g>
	<g>
	</g>
	<g>
	</g>
	<g>
	</g>
	<g>
	</g>
	<g>
	</g>
	<g>
	</g>
	<g>
	</g>
	<g>
	</g>
	<g>
	</g>
	<g>
	</g>
	<g>
	</g>
	<g>
	</g>
	<g>
	</g>
</g>
</svg>
